<svg width="127" height="93" viewBox="0 0 127 93" fill="none" xmlns="http://www.w3.org/2000/svg">
<path fill-rule="evenodd" clip-rule="evenodd" d="M101.335 12.915C99.5526 8.17693 95.1662 5.0019 90.4425 6.00963C87.2629 6.68793 85.4444 8.01193 84.38 9.50713C83.2849 11.0455 82.7794 13.06 82.7921 15.4504C82.8178 20.2937 84.9702 25.865 86.9443 29.5319L89.6541 34.1268L92.7378 38.0406C93.6049 39.1412 93.4157 40.7364 92.315 41.6036C91.2144 42.4707 89.6192 42.2815 88.7521 41.1808L85.5628 37.1329C85.4924 37.0435 85.4281 36.9495 85.3703 36.8515L82.7722 32.4461C82.2484 32.0517 81.3883 31.5811 80.1759 31.1028C78.7872 30.5549 77.1115 30.0645 75.3292 29.6795C71.7021 28.896 67.9819 28.6224 65.6229 28.9919C54.5997 30.7184 47.5037 38.758 43.088 48.7266C38.6698 58.7011 37.1636 70.1633 37.1521 77.6372C37.1454 81.9957 38.59 84.46 40.1843 85.8651C41.8553 87.3378 43.9703 87.8912 45.5914 87.8912H62.0146C66.3821 87.8912 69.3604 87.8827 71.2757 87.5707C71.8809 87.4721 72.2411 87.3618 72.4403 87.2825C72.4529 87.1825 72.4715 87.0831 72.4961 86.9851C72.747 85.9814 72.6233 85.3535 72.438 84.9412C72.239 84.4984 71.8564 84.06 71.2233 83.6499C69.8883 82.7852 67.9243 82.3659 66.4747 82.3043C65.2304 82.2513 64.2086 81.303 64.063 80.0661C63.9173 78.8293 64.691 77.6696 65.889 77.3291C73.3568 75.2067 75.2235 70.8252 75.3832 69.7252C75.5358 68.674 76.327 67.8292 77.3659 67.6081C78.4048 67.3871 79.4714 67.8365 80.0387 68.7344L92.143 87.8912H98.4292C98.6433 87.8876 98.85 87.8844 99.0496 87.8812C100.089 87.8649 100.94 87.8515 101.672 87.8137C102.466 87.7727 102.964 87.7083 103.277 87.6332C103.277 87.6226 103.277 87.6117 103.277 87.6004C103.277 87.3516 103.314 87.1042 103.386 86.8661C103.624 86.0806 103.522 85.5423 103.299 85.0961C103.041 84.5799 102.523 84.0118 101.679 83.446C99.9608 82.2949 97.5228 81.5723 95.7718 81.2969C94.7021 81.1286 93.8571 80.2999 93.668 79.2337C93.4789 78.1675 93.9874 77.0987 94.934 76.5729L94.9342 76.5727C94.9434 76.566 95.2136 76.369 95.6452 75.6527C96.0467 74.9863 96.4511 74.102 96.8343 73.0841C97.5992 71.0522 98.1744 68.7725 98.4627 67.3136C98.6724 66.2528 99.5315 65.4414 100.603 65.2927C111.392 63.7942 118.259 59.1891 120.87 56.7157C120.1 48.5078 118.199 43.0551 116.02 39.5119C114.14 36.4546 112.082 34.3566 110.243 33.106C108.34 31.8113 106.938 31.5898 106.248 31.7094C105.46 31.8459 104.653 31.6028 104.072 31.0535C103.491 30.5041 103.202 29.7128 103.294 28.9183C103.864 23.9839 103.399 18.4016 101.335 12.915ZM103.254 87.9008C103.254 87.9008 103.255 87.8992 103.256 87.8967C103.255 87.8996 103.254 87.9008 103.254 87.9008ZM79.6689 25.5628C78.5649 22.4163 77.7362 18.8848 77.718 15.4773C77.7017 12.4034 78.3451 9.23526 80.2463 6.56451C82.1783 3.85059 85.2034 1.93901 89.3838 1.0472C96.0996 -0.385496 101.742 3.33235 104.745 8.35654C106.85 7.24274 109.184 6.51736 111.512 6.27825C114.843 5.9362 118.38 6.57672 121.174 8.78875C124.022 11.044 125.723 14.6353 125.89 19.4173C126.055 24.1245 124.751 30.0844 121.564 37.4777C121.561 37.4864 121.558 37.4962 121.554 37.5069C121.548 37.5237 121.542 37.5428 121.535 37.5634C121.475 37.7349 121.392 37.9409 121.264 38.1856C121.24 38.2328 121.214 38.2806 121.186 38.329C123.581 42.8251 125.363 49.0295 126.026 57.4433C126.079 58.1181 125.861 58.7862 125.419 59.2989C122.812 62.3238 115.13 67.9593 103.052 70.0458C102.695 71.5072 102.198 73.2388 101.583 74.8717C101.275 75.6905 100.924 76.5192 100.531 77.2944C101.883 77.7699 103.272 78.4059 104.503 79.2308C105.792 80.0943 107.056 81.2651 107.837 82.8264C108.605 84.361 108.822 86.1138 108.342 87.98C108.297 88.8783 108.077 89.8475 107.454 90.7093C106.727 91.7152 105.713 92.2146 104.793 92.4799C103.907 92.7351 102.91 92.8306 101.934 92.881C101.102 92.924 100.139 92.939 99.1013 92.9552C98.901 92.9583 98.6979 92.9615 98.4924 92.9649C98.4783 92.9652 98.4642 92.9653 98.4501 92.9653H90.7449C89.8746 92.9653 89.065 92.5192 88.6002 91.7834L78.1891 75.3064C77.1521 76.6776 75.7244 78.0639 73.8335 79.2968C73.8832 79.3279 73.9327 79.3593 73.9819 79.3912C75.2015 80.1812 76.3661 81.3035 77.0661 82.861C77.7467 84.3752 77.8942 86.093 77.4829 87.9438C77.3902 89.3098 76.7416 90.4766 75.6256 91.2876C74.5915 92.0391 73.2966 92.3825 72.0915 92.5788C69.7171 92.9656 66.3177 92.9655 62.2712 92.9653H45.5914C42.9707 92.9653 39.5899 92.1048 36.8293 89.6718C34.6387 87.7411 32.9932 84.9563 32.361 81.2056C30.4154 81.8138 28.2158 82.2767 25.9581 82.3955C23.3795 82.5863 20.9834 82.3507 18.7653 81.733C13.9985 80.4053 10.3637 77.3988 7.659 73.7238C2.32879 66.4815 0.331506 56.2885 0.0391894 49.2261C-0.285447 41.383 1.42761 35.5915 4.40569 31.7449C7.40927 27.8653 11.5698 26.1563 15.5559 26.3779C19.4939 26.5967 23.2048 28.7079 25.246 32.2751C27.3195 35.8987 27.4769 40.6595 25.0555 45.8228C25.0199 45.8986 24.9806 45.9727 24.9377 46.0446C23.9437 47.712 22.8584 49.3988 21.7985 51.0462C21.6627 51.2572 21.5274 51.4675 21.3928 51.677C20.1944 53.542 19.0416 55.356 18.0293 57.134C15.9836 60.7269 14.7383 63.8006 14.7099 66.392C15.0037 70.1293 16.0023 72.5516 17.2238 74.1167C18.4392 75.6739 20.0237 76.5746 21.8466 77.017C23.0502 77.3091 24.3421 77.3956 25.6481 77.3302C27.5788 77.1815 29.7231 76.7252 32.1047 75.8784C32.3298 67.9337 34.0111 56.6897 38.4487 46.6716C43.2259 35.8867 51.4257 26.0796 64.8377 23.9789C68.0707 23.4726 72.4834 23.8737 76.4006 24.7198C77.5151 24.9605 78.6168 25.2431 79.6689 25.5628ZM9.70918 67.4366C9.68396 67.185 9.66167 66.9301 9.64234 66.6719C9.63763 66.6089 9.63527 66.5458 9.63527 66.4826C9.63527 62.4588 11.4902 58.3636 13.6198 54.6234C14.7071 52.7138 15.9273 50.7962 17.124 48.934C17.2601 48.7222 17.3959 48.5112 17.5311 48.301C18.5724 46.6823 19.5846 45.1089 20.5131 43.5571C22.3147 39.6457 21.9327 36.7013 20.842 34.7952C19.7088 32.8148 17.607 31.5738 15.2743 31.4441C12.9897 31.3172 10.4213 32.2634 8.41788 34.8511C6.38895 37.4718 4.81686 41.9596 5.10894 49.0163C5.33576 54.4961 6.68003 61.6739 9.70918 67.4366ZM117.804 33.2889C120.132 27.3691 120.935 22.8836 120.819 19.5948C120.692 15.961 119.463 13.9065 118.024 12.7667C116.53 11.5838 114.422 11.0802 112.031 11.3258C110.223 11.5114 108.377 12.1178 106.749 13.0445C108.244 17.7506 108.754 22.4612 108.55 26.8324C110.092 27.1833 111.644 27.9219 113.097 28.9105C114.695 29.9973 116.292 31.4612 117.804 33.2889Z" fill="#FBFDFF"/>
<path d="M110.459 46.854C110.459 49.2341 108.53 51.1636 106.15 51.1636C103.77 51.1636 101.84 49.2341 101.84 46.854C101.84 44.4739 103.77 42.5444 106.15 42.5444C108.53 42.5444 110.459 44.4739 110.459 46.854Z" fill="#FBFDFF"/>
</svg>
